HIERARCHY
ROOT Hips
{
  OFFSET 13.6774 106.653 -34.4427
  CHANNELS 6 Xposition Yposition Zposition Zrotation Xrotation Yrotation
  JOINT ToSpine
  {
    OFFSET -2.69724 7.43032 -0.144315
    CHANNELS 3 Zrotation Xrotation Yrotation
    JOINT Spine
    {
      OFFSET -0.0310711 10.7595 1.96963
      CHANNELS 3 Zrotation Xrotation Yrotation
      JOINT Spine1
      {
        OFFSET 19.9056 3.91189 0.764692
        CHANNELS 3 Zrotation Xrotation Yrotation
        JOINT Neck
        {
          OFFSET 25.9749 7.03908 -0.130764
          CHANNELS 3 Zrotation Xrotation Yrotation
          JOINT Head
          {
            OFFSET 9.52751 0.295786 -0.907742
            CHANNELS 3 Zrotation Xrotation Yrotation
            End Site
            {
              OFFSET 16.4037 0.713936 2.7358
            }
          }
        }
        JOINT LeftShoulder
        {
          OFFSET 17.7449 4.33886 11.7777
          CHANNELS 3 Zrotation Xrotation Yrotation
          JOINT LeftArm
          {
            OFFSET 0.911315 1.27913 9.80584
            CHANNELS 3 Zrotation Xrotation Yrotation
            JOINT LeftForeArm
            {
              OFFSET 28.6126 1.18197 -3.53199
              CHANNELS 3 Zrotation Xrotation Yrotation
              JOINT LeftHand
              {
                OFFSET 27.5088 0.0218783 0.327423
                CHANNELS 3 Zrotation Xrotation Yrotation
                End Site
                {
                  OFFSET 18.6038 -0.000155887 0.382096
                }
              }
            }
          }
        }
        JOINT RightShoulder
        {
          OFFSET 17.1009 2.89543 -12.2328
          CHANNELS 3 Zrotation Xrotation Yrotation
          JOINT RightArm
          {
            OFFSET 1.4228 0.178766 -10.211
            CHANNELS 3 Zrotation Xrotation Yrotation
            JOINT RightForeArm
            {
              OFFSET 28.733 1.87905 2.64907
              CHANNELS 3 Zrotation Xrotation Yrotation
              JOINT RightHand
              {
                OFFSET 27.4588 0.290562 -0.101845
                CHANNELS 3 Zrotation Xrotation Yrotation
                End Site
                {
                  OFFSET 17.8396 -0.255518 -0.000602873
                }
              }
            }
          }
        }
      }
    }
  }
  JOINT LeftUpLeg
  {
    OFFSET -5.61296 -2.22332 -10.2353
    CHANNELS 3 Zrotation Xrotation Yrotation
    JOINT LeftLeg
    {
      OFFSET 2.56703 -44.7417 -7.93097
      CHANNELS 3 Zrotation Xrotation Yrotation
      JOINT LeftFoot
      {
        OFFSET 3.16933 -46.5642 -3.96578
        CHANNELS 3 Zrotation Xrotation Yrotation
        JOINT LeftToeBase
        {
          OFFSET 0.346054 -6.02161 12.8035
          CHANNELS 3 Zrotation Xrotation Yrotation
          End Site
          {
            OFFSET 0.134235 -1.35082 5.13018
          }
        }
      }
    }
  }
  JOINT RightUpLeg
  {
    OFFSET -5.7928 -1.72406 10.6446
    CHANNELS 3 Zrotation Xrotation Yrotation
    JOINT RightLeg
    {
      OFFSET -2.57161 -44.7178 -7.85259
      CHANNELS 3 Zrotation Xrotation Yrotation
      JOINT RightFoot
      {
        OFFSET -3.10148 -46.5936 -4.03391
        CHANNELS 3 Zrotation Xrotation Yrotation
        JOINT RightToeBase
        {
          OFFSET -0.0828122 -6.13587 12.8035
          CHANNELS 3 Zrotation Xrotation Yrotation
          End Site
          {
            OFFSET -0.131328 -1.35082 5.13018
          }
        }
      }
    }
  }
}
MOTION
Frames: 12
Frame Time: 0.03333333333333333
0.0000 93.1000 0.0000 68.6415 -30.7223 -8.7312 -71.1466 0.0770 88.0664 87.5251 73.1275 -6.9044 0.4568 21.1416 4.1943 -127.9021 28.8198 165.8578 180.2489 69.8069 -144.7736 -0.4497 -15.7000 -28.4755 -79.6923 25.0466 -142.5200 17.0274 -3.0368 -96.6231 0.1714 0.1634 0.0795 -1.6491 5.9386 39.1742 -135.9554 -0.8772 96.5521 14.6848 -3.7868 77.0501 0.0116 0.1633 -0.1611 -45.3539 12.9022 99.4262 -3.6067 48.2769 -10.9191 1.8696 -14.9323 -2.2781 3.8924 -11.9486 13.6291 -40.0464 -17.1931 75.8956 1.4601 37.3248 -1.7779 -5.8798 1.8800 0.0063 0.7462 -12.8872 -2.9319 
0.0000 93.1000 0.0000 68.5851 -31.4108 -10.0010 -71.1379 -0.4179 88.1176 88.0949 72.7571 -6.9607 -0.8553 21.0213 3.3584 -128.3172 28.9676 165.5217 179.5076 70.0878 -145.9828 2.0882 -16.1859 -29.7113 -80.3087 25.4190 -140.4198 16.7538 -2.3186 -97.3381 -0.4117 -2.3763 2.0513 -1.5930 6.0463 38.9452 -136.6681 -1.6109 96.4157 15.4662 -3.0927 80.0392 2.2263 -2.6662 1.4044 -45.6982 12.5735 98.9997 -5.2406 47.7240 -9.8126 0.7888 -15.0540 0.1147 3.6232 -12.8278 13.5528 -39.5674 -17.2894 75.6853 0.7379 37.1985 -0.5362 -6.4143 0.9469 -1.1402 0.9870 -13.7803 -2.4888 
0.0000 93.1000 0.0000 67.9685 -30.1079 -9.1508 -71.0601 0.2980 88.0190 89.0925 72.6269 -6.4460 0.7457 20.9544 3.3783 -127.8439 29.8478 165.6885 -178.4847 71.0992 -146.6854 -1.7049 -15.8541 -30.1482 -79.2087 25.6128 -139.5493 17.4857 -3.6352 -98.7311 0.2016 1.2872 -1.1656 -1.6354 5.5679 38.5050 -137.5562 -1.6502 96.3866 15.3363 -1.7357 82.4374 -1.0275 1.4997 -0.7087 -44.0292 13.1873 98.5588 -4.1604 48.5540 -11.9374 0.8649 -15.2306 -3.1956 3.3241 -12.7268 13.7196 -40.9358 -17.4877 74.8836 1.2291 37.1372 -0.6780 -5.7102 -0.3476 0.3352 1.4716 -13.0764 -4.5785 
0.0000 93.1000 0.0000 68.2355 -30.0507 -8.8253 -71.0561 0.1362 88.0235 88.8803 72.2363 -6.8379 0.1399 20.9703 3.8101 -126.3944 29.7231 163.8034 -177.9669 71.2977 -149.7362 -1.0098 -16.0601 -30.3084 -79.6093 25.9998 -138.9819 17.2162 -4.1864 -99.7924 0.1844 0.4447 -0.4504 -1.8425 5.8621 39.6513 -137.7263 0.5589 96.2580 16.8460 -2.0496 84.2484 -0.2377 0.6158 -0.0429 -43.2474 13.4805 98.6532 -4.9921 49.2196 -11.6233 0.5421 -15.4799 -2.4880 4.0420 -12.5974 13.0261 -41.0398 -17.3390 73.1653 0.8168 37.2703 -1.1341 -5.8035 -1.9535 0.0207 0.8829 -10.6061 -1.8513 
0.0000 93.1000 0.0000 68.2677 -29.4075 -8.6954 -71.0456 0.0833 88.0130 91.1332 71.9699 -8.3079 -0.0531 20.5634 4.2396 -126.7864 29.7177 163.3451 -176.7391 71.3762 -150.1015 -0.7618 -15.9079 -30.2772 -80.0019 26.7809 -136.5900 17.4349 -3.9240 -100.7404 -0.0521 0.2462 0.2297 -1.8909 5.8035 39.9625 -137.7985 1.2222 96.0524 16.3537 -1.5469 84.8257 0.2136 0.3276 -0.0053 -42.4087 14.8595 98.7607 -4.7394 50.8383 -13.5002 -1.2061 -14.2913 -1.9828 5.2931 -14.3179 15.8789 -41.0053 -17.1226 71.4809 1.2742 37.1879 -1.6925 -5.4089 -2.9876 -0.0782 0.6921 -9.0470 -1.9549 
0.0000 93.1000 0.0000 68.7286 -28.4093 -8.1551 -71.0372 0.0627 87.9934 94.0685 72.0061 -10.5632 -1.4956 20.2950 4.9444 -125.8313 29.9857 163.6673 -175.6852 72.0138 -152.6642 -0.7495 -15.9564 -30.2213 -79.4027 26.9414 -135.4832 17.3839 -3.8672 -100.7905 -0.0229 0.1544 0.2259 -1.9745 5.9374 40.1522 -139.5275 1.0574 96.5598 16.4765 -1.6343 84.8409 0.3519 0.2426 0.1016 -39.8133 16.6761 97.7869 -6.3020 53.8216 -14.2059 -3.1781 -14.0503 -1.6650 6.2926 -15.7396 18.8338 -41.1124 -16.8687 70.6640 0.9570 38.6131 -0.9755 -5.9223 -4.2109 0.1755 0.9923 -8.8230 -2.0116 
0.0000 93.1000 0.0000 68.4601 -27.1220 -7.3510 -71.0442 0.0436 87.9876 96.3258 71.1609 -12.4654 -2.0008 19.7767 5.8327 -124.7230 30.0530 162.7119 -173.1585 72.1513 -154.5549 -0.7075 -15.9938 -30.2900 -79.1108 27.8345 -135.7538 17.6725 -3.5543 -100.5163 0.2404 0.0710 0.3288 -2.0002 6.0098 40.3319 -139.2648 1.1478 97.3736 15.7075 -1.5254 84.3973 0.2288 0.1322 -0.0110 -38.5855 17.9598 97.6654 -7.6485 55.7959 -14.9473 -2.5859 -13.2027 -1.7424 8.6769 -19.6764 20.8245 -40.9591 -17.1995 69.4488 1.2942 39.6476 -0.2738 -5.5405 -4.1237 -0.0948 1.0457 -9.0947 -3.4352 
0.0000 93.1000 0.0000 68.5870 -27.6482 -7.3697 -71.0401 0.1154 87.9627 96.1274 71.0604 -12.8111 -2.1309 19.0018 7.0312 -124.6448 29.5494 161.9728 -169.3942 72.0592 -155.1880 -1.1934 -16.2544 -30.2858 -78.7481 28.0567 -135.8081 18.3313 -3.6952 -100.3862 0.2258 0.4413 0.1101 -2.1387 6.1079 41.1710 -138.9621 2.2134 98.1661 14.6556 -1.5203 82.8879 -0.0778 0.5528 -0.2431 -37.5043 18.3340 96.9985 -6.9766 57.7049 -14.2538 -3.3226 -13.7049 -1.9994 9.4112 -18.9271 20.0502 -40.8212 -17.0049 68.5663 0.7431 39.9151 0.3268 -5.4815 -4.5905 0.1688 1.1202 -9.3411 -4.1321 
0.0000 93.1000 0.0000 69.5688 -28.0555 -6.8581 -71.0496 -0.0182 87.9803 96.1639 71.3749 -12.2392 -1.5113 19.0321 6.7086 -123.7944 28.9633 159.4175 -167.4884 72.0723 -155.7236 -0.4716 -15.8444 -30.4455 -78.8511 28.7367 -135.5429 18.8425 -3.8201 -99.7751 0.2926 -0.2518 0.8399 -2.1314 6.0602 40.9246 -138.6658 2.0944 98.1982 14.3809 -2.6919 80.7874 0.8031 -0.1876 0.3909 -38.6914 18.6521 97.1223 -7.0812 57.9830 -13.0355 -2.5375 -12.9234 -1.2247 8.2811 -18.9202 17.9234 -40.0854 -16.4441 69.3965 0.2040 41.1116 0.6810 -5.9353 -4.9702 -0.0528 0.8851 -9.8651 -3.6691 
0.0000 93.1000 0.0000 69.0302 -28.7008 -6.3820 -71.0562 0.0393 87.9796 94.9158 71.5371 -11.9193 -1.2721 19.0303 8.1368 -122.4632 28.7533 160.4235 -168.2860 72.1474 -156.9937 -0.7954 -16.0390 -30.2679 -77.9627 29.0543 -135.9044 19.4260 -4.0570 -99.4621 0.1825 -0.0125 0.3967 -2.1624 6.0233 41.0510 -137.7660 1.3351 99.4801 13.7501 -2.4181 79.6531 0.4658 0.1479 0.3097 -39.5973 18.1817 96.7847 -6.6334 57.3342 -12.8349 -1.7604 -14.1459 -1.5490 7.0351 -16.7015 14.9810 -39.0193 -16.7389 70.7120 1.8970 42.0028 0.5371 -4.9852 -4.7126 -0.0405 1.0298 -10.4473 -4.5554 
0.0000 93.1000 0.0000 69.3488 -29.8861 -6.9892 -71.0642 0.0346 87.9904 94.3347 71.4697 -11.3156 -0.6251 19.2204 8.9569 -121.4973 27.7686 157.6701 -168.2801 72.0532 -155.7955 -0.7935 -16.3216 -30.2248 -77.7119 29.0009 -135.8925 18.9459 -3.9409 -98.3713 -0.2166 -0.0580 0.3770 -2.0644 5.5846 41.3466 -138.1810 1.3327 99.1560 14.5606 -2.7722 78.7198 0.2073 0.0922 0.2914 -40.5324 18.1502 97.0057 -6.6071 58.4384 -10.9541 -0.8657 -16.7466 -1.6240 5.2903 -14.0430 14.5292 -38.9057 -17.1623 71.5671 2.1271 43.1867 0.6646 -4.5019 -4.8559 -0.2603 0.9643 -9.0329 -4.7124 
0.0000 93.1000 0.0000 70.1247 -30.1974 -7.0267 -71.0731 0.0786 88.0059 93.2447 71.7748 -10.8404 -0.0515 19.4389 8.6850 -121.5641 27.4041 155.6571 -166.0623 72.8033 -158.9572 -0.9374 -15.9456 -30.0130 -76.7834 29.0399 -136.9262 18.8453 -4.0268 -97.4416 -0.0736 0.1369 0.1300 -1.9422 4.8943 42.1390 -138.7918 0.9190 97.8720 14.4742 -2.9231 78.3708 -0.0702 0.3261 -0.0189 -40.6788 17.1908 97.7943 -7.2089 57.8922 -9.7275 -0.3681 -18.1737 -1.8652 4.5676 -13.7746 15.0897 -39.0649 -16.9070 72.4512 1.4031 44.2640 -0.6160 -3.9479 -5.7241 -0.1779 0.8860 -8.5151 -5.4189 
